<svg width="40" height="40" viewBox="0 0 40 40" fill="none" xmlns="http://www.w3.org/2000/svg">
<path d="M34.1441 34.1431C41.9551 26.3321 41.9551 13.6679 34.1441 5.85693C26.3331 -1.95407 13.6689 -1.95407 5.85791 5.85693C-1.95309 13.6679 -1.95309 26.3321 5.85791 34.1431C13.6689 41.9541 26.3331 41.9541 34.1441 34.1431Z" fill="#A5C739"/>
<path d="M15.9727 29.8241L25.5386 39.2179C33.8877 36.8143 39.9992 29.1235 39.9992 20.0015C39.9992 19.8263 39.9902 19.6512 39.9872 19.4761L30.9013 10.3872L15.9727 29.8241Z" fill="url(#paint0_linear_2046_4711)"/>
<path d="M17.2073 30.1502C16.4736 30.1502 15.7489 29.8272 15.2567 29.2081L8.69522 20.9316C7.84069 19.8536 8.02186 18.2925 9.09984 17.4379C10.1778 16.5834 11.7419 16.7676 12.5935 17.8426L19.1519 26.1191C20.0065 27.1971 19.8253 28.7582 18.7473 29.6128C18.2914 29.9751 17.7478 30.1502 17.2073 30.1502Z" fill="white"/>
<path d="M17.2031 30.1501C16.6626 30.1501 16.1161 29.975 15.6601 29.6126C14.5852 28.7581 14.404 27.197 15.2555 26.119L27.4062 10.7918C28.2577 9.71681 29.8218 9.53262 30.8998 10.3872C31.9748 11.2417 32.1559 12.8028 31.3044 13.8808L19.1507 29.208C18.6616 29.827 17.9338 30.1501 17.2031 30.1501Z" fill="white"/>
<defs>
<linearGradient id="paint0_linear_2046_4711" x1="22.0264" y1="18.6951" x2="35.6506" y2="32.3194" gradientUnits="userSpaceOnUse">
<stop stop-color="#679F37"/>
<stop offset="1" stop-color="#8CC04D"/>
</linearGradient>
</defs>
</svg>
