<svg width="53" height="58" viewBox="0 0 53 58" fill="none" xmlns="http://www.w3.org/2000/svg">
<path d="M34.6353 27.6803C34.5455 27.6651 34.4537 27.6651 34.3639 27.6803H34.2613C34.1418 27.708 34.029 27.7593 33.9296 27.8311L27.1857 32.6568L17.6127 21.1113C17.5349 21.0152 17.4389 20.9354 17.3302 20.8764C17.2215 20.8174 17.1023 20.7804 16.9793 20.7675C16.7303 20.7401 16.4804 20.8112 16.2831 20.9656C16.0859 21.1201 15.9568 21.3456 15.9237 21.5939C15.9103 21.7108 15.9205 21.8292 15.9536 21.9422C15.9868 22.0551 16.0422 22.1602 16.1167 22.2514L26.2688 34.5207C26.3628 34.6295 26.4797 34.7161 26.6111 34.7745C26.7425 34.8329 26.8851 34.8616 27.0288 34.8585C27.227 34.8621 27.4212 34.803 27.5838 34.6896L35.0757 29.3452C35.1763 29.2737 35.2623 29.1836 35.329 29.0797C35.3949 28.9753 35.4381 28.8581 35.4557 28.7359C35.4751 28.6168 35.4701 28.495 35.4411 28.3778C35.4121 28.2606 35.3596 28.1506 35.2868 28.0543C35.2095 27.9508 35.1118 27.8643 34.9997 27.7999C34.8877 27.7356 34.7637 27.6949 34.6353 27.6803Z" fill="#A5C739"/>
<path d="M42.0549 51.5615L42.2419 51.4167C47.1301 47.8787 50.5562 42.6756 51.8749 36.7872C53.1937 30.8988 52.3142 24.7314 49.402 19.4464L49.215 19.1147L49.4262 18.795C50.6874 16.8942 51.3609 14.664 51.3625 12.3828C51.3549 10.6518 50.9662 8.94364 50.2239 7.37983C49.4816 5.81601 48.404 4.43488 47.0676 3.33461L46.6273 2.94856L47.6226 1.53101C47.7506 1.33063 47.7939 1.0877 47.7432 0.855408C47.7208 0.732524 47.6734 0.615562 47.6038 0.51179C47.5343 0.408019 47.4442 0.319656 47.3391 0.252196C47.128 0.112955 46.8712 0.0609283 46.6226 0.107047C46.374 0.153166 46.153 0.29384 46.006 0.499513L44.9986 1.94119L44.504 1.69991C41.9213 0.459311 38.9884 0.152167 36.2048 0.830763C33.4211 1.50936 30.9587 3.13175 29.2366 5.42173C29.1707 5.52082 29.1237 5.63126 29.0979 5.74746L28.9712 6.26622L28.4283 6.224C27.7286 6.18178 27.1556 6.15765 26.6187 6.15765C26.0818 6.15765 25.3459 6.18781 24.5798 6.2421L24.1093 6.27829L23.9344 5.85001C23.9035 5.77973 23.865 5.71299 23.8198 5.65095C22.0896 3.34261 19.6071 1.71146 16.8017 1.03956C13.9962 0.367664 11.0442 0.697258 8.45597 1.97135L7.95531 2.21264L6.68253 0.402999C6.53163 0.200513 6.3098 0.0625174 6.06148 0.0166552C5.81315 -0.0292071 5.55666 0.0204511 5.3434 0.155682C5.23963 0.224009 5.15083 0.312712 5.08239 0.416406C5.01395 0.5201 4.9673 0.636621 4.94528 0.758895C4.92042 0.878263 4.92044 1.00148 4.94535 1.12083C4.97026 1.24019 5.01952 1.35313 5.09005 1.45259L6.35679 3.26223L5.92248 3.63019C4.60665 4.7318 3.54711 6.10733 2.81781 7.66074C2.08851 9.21415 1.70703 10.908 1.69999 12.6241C1.70388 14.9318 2.39245 17.1865 3.67853 19.1026L3.88965 19.4163L3.75091 19.6817C2.63821 21.7198 1.82555 23.9079 1.33806 26.1783C0.371676 30.8129 0.743252 35.6268 2.40944 40.0582C4.07562 44.4896 6.96769 48.3557 10.7482 51.2056L10.9412 51.3503L7.19526 55.8262C6.99333 56.0707 6.89582 56.3849 6.92381 56.7008C6.9415 56.8583 6.99002 57.0107 7.06661 57.1494C7.1432 57.2881 7.24636 57.4103 7.37019 57.5091C7.6295 57.7046 7.95295 57.7951 8.27605 57.7627C8.59915 57.7303 8.89816 57.5773 9.11347 57.3342L12.974 52.7196L13.1369 52.8161C17.165 55.2302 21.7669 56.5193 26.4629 56.549C31.1589 56.5788 35.7768 55.348 39.8351 52.985L39.998 52.8885L43.7198 57.3402C43.9356 57.5807 44.2339 57.7315 44.5555 57.7628C44.8772 57.7941 45.1989 57.7036 45.457 57.5091C45.582 57.4123 45.6861 57.2911 45.763 57.1529C45.8399 57.0147 45.8879 56.8623 45.9043 56.705C45.9206 56.5478 45.9049 56.3888 45.8581 56.2377C45.8113 56.0867 45.7344 55.9467 45.632 55.8262L42.0549 51.5615ZM21.5457 6.50148C21.4793 6.50148 14.7716 8.31112 12.2984 9.97598C9.69359 11.7456 7.36421 13.89 5.38562 16.3399L4.68589 17.2085L4.3119 16.171C3.85796 15.0347 3.62063 13.8235 3.61218 12.6C3.65191 9.90412 4.75859 7.33395 6.68975 5.45253C8.62092 3.57112 11.2191 2.53188 13.915 2.5625C16.1451 2.56692 18.3162 3.27867 20.1161 4.59533C20.4019 4.81096 20.6665 5.05334 20.9063 5.31918L21.9076 6.40496L21.5457 6.50148ZM47.6829 16.1107C46.2021 14.2763 44.523 12.6114 42.6762 11.1462C42.073 10.6576 41.4095 10.1871 40.764 9.74676L40.5047 9.58389C38.1763 8.14825 33.0309 6.61609 32.0175 6.32051L31.4142 6.15161L31.6133 5.8862C32.4611 4.75631 33.5762 3.85466 34.8586 3.26223C36.21 2.65855 37.6734 2.34614 39.1535 2.34534C41.8484 2.31633 44.445 3.35628 46.3749 5.23752C48.3047 7.11877 49.4106 9.68802 49.4503 12.3828C49.452 13.6 49.227 14.8069 48.7868 15.9418L48.3826 16.9793L47.6829 16.1107ZM50.5542 31.3599C50.5321 35.1021 49.6069 38.7836 47.8573 42.0917C46.1077 45.3998 43.5854 48.2366 40.5047 50.3611C40.0522 50.6808 39.624 50.9643 39.1957 51.2116C35.3111 53.5546 30.849 54.7656 26.3129 54.708C21.7767 54.6505 17.3469 53.3267 13.523 50.8859L12.7086 50.3369C9.50715 48.1302 6.91322 45.1525 5.1663 41.6787C3.41939 38.2049 2.57579 34.347 2.71339 30.4611C3.17183 18.6502 12.968 8.80575 25.0865 8.0638C25.5872 8.03364 26.0879 8.02157 26.5825 8.02157C32.7567 8.01221 38.7036 10.3496 43.2191 14.5604C45.5341 16.7034 47.3808 19.3021 48.6431 22.1932C49.9054 25.0843 50.5561 28.2052 50.5542 31.3599Z" fill="#A5C739"/>
</svg>
