<svg width="68" height="68" viewBox="0 0 68 68" fill="none" xmlns="http://www.w3.org/2000/svg">
<path d="M55.2484 26.7974C55.1512 26.6326 55.0999 26.4448 55.0999 26.2534C55.0999 26.0621 55.1512 25.8743 55.2484 25.7094L59.4191 18.6998C59.6802 18.2603 59.8203 17.7595 59.8251 17.2483C59.83 16.7371 59.6994 16.2338 59.4467 15.7894C59.194 15.345 58.8282 14.9754 58.3864 14.7183C57.9446 14.4611 57.4426 14.3254 56.9314 14.3251H42.9631V11.9338C42.9541 11.1712 42.6453 10.4428 42.1034 9.90615C41.5615 9.36953 40.83 9.06787 40.0674 9.06643H15.0831C14.7222 9.06957 14.365 9.13871 14.0291 9.27043C13.9486 8.52383 13.5856 7.83629 13.0145 7.34873C12.4434 6.86118 11.7074 6.61056 10.9574 6.64824C10.2074 6.68592 9.50028 7.00905 8.98091 7.55139C8.46153 8.09373 8.16928 8.81419 8.16406 9.5651V58.4911C8.16406 59.2726 8.47451 60.0221 9.02712 60.5747C9.57973 61.1273 10.3292 61.4378 11.1107 61.4378C11.8922 61.4378 12.6417 61.1273 13.1943 60.5747C13.7469 60.0221 14.0574 59.2726 14.0574 58.4911V32.7021C14.384 32.8312 14.7318 32.8985 15.0831 32.9004H30.5587V35.2861C30.5587 36.0502 30.8607 36.7833 31.3988 37.3257C31.937 37.8681 32.6677 38.1758 33.4317 38.1818H56.9144C57.4256 38.1814 57.9276 38.0458 58.3694 37.7886C58.8112 37.5314 59.177 37.1619 59.4297 36.7175C59.6824 36.2731 59.813 35.7697 59.8081 35.2586C59.8033 34.7474 59.6632 34.2466 59.4021 33.8071L55.2484 26.7974ZM11.1107 8.42043C11.4113 8.42043 11.6996 8.53984 11.9121 8.75238C12.1247 8.96492 12.2441 9.25319 12.2441 9.55377V11.5654C12.2225 11.6929 12.2092 11.8216 12.2044 11.9508V12.2681H9.9944V9.53676C9.99878 9.24206 10.1178 8.96066 10.3262 8.75225C10.5346 8.54384 10.816 8.42482 11.1107 8.42043ZM12.2441 58.4628C12.198 58.7254 12.0609 58.9635 11.8567 59.135C11.6525 59.3065 11.3944 59.4005 11.1277 59.4005C10.8611 59.4005 10.6029 59.3065 10.3988 59.135C10.1946 58.9635 10.0574 58.7254 10.0114 58.4628V13.9511H12.2044V30.0331C12.2092 30.1623 12.2225 30.291 12.2441 30.4184V58.4628ZM30.5587 31.0701H15.0831C14.8479 31.0688 14.6197 30.9897 14.4342 30.8452C14.2487 30.7007 14.1162 30.4988 14.0574 30.2711V11.6674C14.1162 11.4397 14.2487 11.2379 14.4342 11.0933C14.6197 10.9488 14.8479 10.8697 15.0831 10.8684H40.0674C40.3499 10.8684 40.6209 10.9807 40.8207 11.1805C41.0205 11.3802 41.1327 11.6512 41.1327 11.9338V30.0331C41.1327 30.3156 41.0205 30.5866 40.8207 30.7864C40.6209 30.9862 40.3499 31.0984 40.0674 31.0984H30.5587V31.0701ZM57.8551 35.8131C57.7688 35.984 57.6368 36.1274 57.4737 36.2275C57.3105 36.3276 57.1228 36.3803 56.9314 36.3798H33.4317C33.1502 36.3783 32.8806 36.2654 32.6821 36.0657C32.4835 35.8661 32.3721 35.596 32.3721 35.3144V32.9004H40.0674C40.83 32.899 41.5615 32.5973 42.1034 32.0607C42.6453 31.5241 42.9541 30.7957 42.9631 30.0331V16.1554H56.9314C57.119 16.1529 57.3039 16.201 57.4665 16.2948C57.629 16.3885 57.7633 16.5244 57.8551 16.6881C57.9508 16.8503 58.0012 17.0352 58.0012 17.2236C58.0012 17.412 57.9508 17.5969 57.8551 17.7591L53.6787 24.7744C53.4117 25.2216 53.2707 25.7326 53.2707 26.2534C53.2707 26.7742 53.4117 27.2853 53.6787 27.7324L57.8494 34.7421C57.9465 34.9036 57.9983 35.0883 57.9993 35.2768C58.0003 35.4653 57.9505 35.6506 57.8551 35.8131Z" fill="#A5C739"/>
</svg>
