<svg width="79" height="52" viewBox="0 0 79 52" fill="none" xmlns="http://www.w3.org/2000/svg">
<path d="M77.8141 10.353H70.7966C70.6408 10.353 70.4866 10.3836 70.3427 10.4431C70.1988 10.5027 70.0681 10.59 69.958 10.7C69.8479 10.81 69.7605 10.9406 69.7009 11.0843C69.6413 11.2281 69.6106 11.3821 69.6106 11.5377V13.1719H58.7163C56.2504 13.1676 53.8777 14.1128 52.0914 15.8111L38.0074 29.1869C36.7996 30.4001 36.0943 32.0238 36.0322 33.7337C35.97 35.4437 36.5556 37.1142 37.672 38.4118H34.5231V17.4453H37.9256C38.2401 17.4453 38.5417 17.3205 38.7642 17.0983C38.9866 16.8761 39.1115 16.5747 39.1115 16.2605V10.067C39.1093 9.75417 38.9834 9.45491 38.7613 9.23448C38.5391 9.01406 38.2387 8.89036 37.9256 8.89037H26.8922C28.3433 7.92076 29.3721 6.43737 29.7712 4.73955C29.9497 3.77355 29.7588 2.77581 29.2363 1.94366C28.7138 1.1115 27.8977 0.505525 26.9495 0.245561C26.3948 0.0476736 25.8047 -0.0320218 25.2173 0.0116027C24.6299 0.0552271 24.0582 0.221205 23.5389 0.498858C21.4124 1.60193 19.8584 4.38003 18.8933 6.61886C17.9282 4.38003 16.3742 1.60193 14.2395 0.498858C13.7216 0.221403 13.1512 0.0555075 12.5651 0.0118785C11.9791 -0.0317505 11.3904 0.0478562 10.837 0.245561C9.88832 0.505512 9.07152 1.11113 8.54768 1.94301C8.02384 2.77488 7.83099 3.77264 8.00714 4.73955C8.40169 6.44804 9.43065 7.94323 10.8861 8.92305H1.18594C0.872822 8.92304 0.572406 9.04674 0.350233 9.26717C0.128059 9.48759 0.00215944 9.78685 0 10.0997V16.2605C0 16.5747 0.124948 16.8761 0.347355 17.0983C0.569762 17.3205 0.87141 17.4453 1.18594 17.4453H4.56383V38.6161C4.56599 39.1911 4.79616 39.7418 5.20393 40.1477C5.61169 40.5535 6.16383 40.7814 6.73942 40.7814H12.3174C11.4658 41.7649 10.9152 42.9724 10.7312 44.2598C10.5473 45.5473 10.7377 46.8604 11.2799 48.0428C11.8221 49.2251 12.6931 50.2268 13.7892 50.9284C14.8853 51.63 16.1602 52.002 17.462 52H46.767C49.8756 52.0015 52.8711 50.8348 55.1585 48.7316L68.4492 36.606H69.6106V39.6293C69.6106 39.9435 69.7356 40.2448 69.958 40.467C70.1804 40.6892 70.482 40.814 70.7966 40.814H77.8141C78.1286 40.814 78.4302 40.6892 78.6526 40.467C78.8751 40.2448 79 39.9435 79 39.6293V11.5377C79 11.3821 78.9693 11.2281 78.9097 11.0843C78.8501 10.9406 78.7628 10.81 78.6526 10.7C78.5425 10.59 78.4118 10.5027 78.2679 10.4431C78.124 10.3836 77.9698 10.353 77.8141 10.353ZM32.1513 38.4118H23.8579V17.4453H32.1513V38.4118ZM17.6582 17.4453H21.486V38.4118H17.6582V17.4453ZM24.6349 2.56609C24.9112 2.41562 25.2199 2.33431 25.5345 2.32914C25.7467 2.33213 25.9568 2.3708 26.1561 2.44353C26.571 2.52867 26.9366 2.77125 27.1761 3.12023C27.4156 3.4692 27.5103 3.89738 27.4402 4.31467C27.154 5.94884 24.8066 8.29389 20.5618 8.79231C21.3797 6.60251 22.86 3.48123 24.6349 2.56609ZM10.3463 4.31467C10.1909 3.42404 10.6244 2.79488 11.6222 2.44353C11.8243 2.3708 12.0372 2.33214 12.252 2.32914C12.5664 2.3362 12.8747 2.4174 13.1517 2.56609C14.9265 3.48123 16.4232 6.60251 17.2411 8.79231C12.9799 8.29389 10.6244 5.94884 10.3463 4.31467ZM2.37188 15.0757V11.2763H36.7233V15.1002H2.37188V15.0757ZM6.93571 38.4118V17.4453H15.2945V38.4118H6.93571ZM67.983 34.2038C67.6812 34.2018 67.3895 34.3125 67.1651 34.5143L53.5554 46.9994C51.71 48.7131 49.2865 49.6699 46.767 49.6795H17.4292C16.2535 49.6795 15.126 49.2129 14.2947 48.3823C13.4633 47.5518 12.9963 46.4254 12.9963 45.2508C12.9963 44.0763 13.4633 42.9499 14.2947 42.1193C15.126 41.2888 16.2535 40.8222 17.4292 40.8222H41.3035C41.4636 40.811 41.6196 40.7664 41.7615 40.6915C42.8181 40.8656 43.901 40.786 44.9207 40.4592C45.9405 40.1324 46.8677 39.5678 47.6257 38.8122L58.9944 27.8223C59.185 27.5986 59.2856 27.3121 59.2767 27.0185C59.2678 26.7249 59.15 26.445 58.9462 26.2332C58.7423 26.0215 58.467 25.8929 58.1737 25.8725C57.8803 25.8521 57.5899 25.9413 57.3586 26.1228L45.9491 37.1208C45.1116 37.9053 44.0022 38.3347 42.8543 38.3185C41.7063 38.3023 40.6095 37.8419 39.7945 37.0341C38.9796 36.2263 38.5101 35.1341 38.4849 33.9875C38.4597 32.8408 38.8808 31.7291 39.6595 30.8864L53.7272 17.527C55.0702 16.2439 56.858 15.5295 58.7163 15.5333H69.6106V34.2038H67.983ZM76.6281 38.4118H71.9743V12.7225H76.6281V38.4118Z" fill="#A5C739"/>
</svg>
