<svg width="40" height="54" viewBox="0 0 40 54" fill="none" xmlns="http://www.w3.org/2000/svg">
<path d="M32.9262 7.62654C32.5664 7.5174 32.239 7.3212 31.9731 7.05532C31.7073 6.78945 31.5111 6.4621 31.4019 6.10229C31.2776 5.67157 31.0179 5.29234 30.6612 5.02081C30.3045 4.74927 29.8698 4.59986 29.4215 4.59473H21.5277V5.42917C21.5262 6.36264 21.1547 7.25746 20.4947 7.91752C19.8346 8.57758 18.9398 8.94905 18.0063 8.95053H17.1719V26.9968C17.1719 27.2181 17.2598 27.4303 17.4163 27.5868C17.5728 27.7433 17.785 27.8312 18.0063 27.8312C18.2276 27.8312 18.4399 27.7433 18.5964 27.5868C18.7528 27.4303 18.8408 27.2181 18.8408 26.9968V10.5527C19.9141 10.3754 20.905 9.86642 21.6743 9.09715C22.4436 8.32789 22.9526 7.33699 23.1298 6.26362H29.4215C29.5123 6.26974 29.5987 6.30498 29.6678 6.36411C29.737 6.42324 29.7852 6.5031 29.8054 6.59183C29.9953 7.21217 30.3345 7.77645 30.7933 8.2352C31.252 8.69394 31.8163 9.03316 32.4366 9.22311C32.5258 9.24435 32.6058 9.29365 32.6649 9.36374C32.724 9.43383 32.759 9.52103 32.7649 9.61252V35.8474C32.759 35.9389 32.724 36.0261 32.6649 36.0962C32.6058 36.1663 32.5258 36.2156 32.4366 36.2369C31.8163 36.4268 31.252 36.766 30.7933 37.2248C30.3345 37.6835 29.9953 38.2478 29.8054 38.8681C29.7852 38.9569 29.737 39.0367 29.6678 39.0959C29.5987 39.155 29.5123 39.1902 29.4215 39.1964H24.9044C24.6831 39.1964 24.4708 39.2843 24.3143 39.4408C24.1579 39.5972 24.0699 39.8095 24.0699 40.0308C24.0699 40.2521 24.1579 40.4643 24.3143 40.6208C24.4708 40.7773 24.6831 40.8652 24.9044 40.8652H29.4215C29.8698 40.8601 30.3045 40.7107 30.6612 40.4392C31.0179 40.1676 31.2776 39.7884 31.4019 39.3577C31.5111 38.9979 31.7073 38.6705 31.9731 38.4046C32.239 38.1388 32.5664 37.9426 32.9262 37.8334C33.3578 37.7089 33.7377 37.4483 34.0093 37.0905C34.2809 36.7326 34.4298 36.2967 34.4337 35.8474V9.61252C34.4298 9.16329 34.2809 8.72734 34.0093 8.36952C33.7377 8.01169 33.3578 7.75111 32.9262 7.62654Z" fill="#A5C739"/>
<path d="M37.001 0H14.6156C14.0697 0 13.5462 0.216856 13.1602 0.602861C12.7742 0.988866 12.5573 1.5124 12.5573 2.0583V22.925C8.00679 26.7912 0.352159 33.4946 0.0740109 35.1635C-0.137382 36.3706 0.140766 44.8931 0.446729 53.0651L0.474544 53.8662L11.9176 53.9051C11.9785 53.9136 12.0402 53.9136 12.1011 53.9051H12.1512L12.2791 53.8606C12.2959 53.848 12.3147 53.8386 12.3348 53.8328L12.4405 53.7605C12.4526 53.7447 12.4677 53.7314 12.485 53.7215C12.5303 53.6773 12.5713 53.6289 12.6074 53.5769L18.0702 45.4828H36.9843C37.5302 45.4828 38.0537 45.2659 38.4397 44.8799C38.8257 44.4939 39.0426 43.9704 39.0426 43.4245V2.0583C39.0426 1.51528 38.828 0.994259 38.4456 0.60873C38.0632 0.2232 37.5439 0.00440282 37.001 0ZM1.72621 35.4806C2.09893 34.5015 7.35593 29.6116 12.5795 25.1223V35.2914L7.92891 40.2981C7.82759 40.3697 7.7435 40.463 7.68279 40.5712C7.62208 40.6795 7.58627 40.7999 7.57796 40.9237C7.56965 41.0475 7.58906 41.1716 7.63477 41.2869C7.68048 41.4023 7.75134 41.506 7.84219 41.5905C7.93304 41.675 8.0416 41.7382 8.15995 41.7755C8.27831 41.8127 8.40348 41.8231 8.52636 41.8059C8.64924 41.7887 8.76674 41.7443 8.87029 41.6759C8.97384 41.6075 9.06083 41.5169 9.12495 41.4107L18.3261 31.542C19.5833 30.2458 21.5637 29.9399 22.6485 30.88C23.7333 31.8201 23.8279 33.9174 22.8043 35.4305L16.9353 44.131L11.4781 52.2195L2.0878 52.1861C1.72621 41.8502 1.58157 36.2149 1.72621 35.4806ZM37.3904 43.3744C37.3904 43.4777 37.3493 43.5767 37.2763 43.6498C37.2033 43.7228 37.1042 43.7638 37.001 43.7638H19.1995L24.2061 36.3651C25.7081 34.1399 25.5079 31.1136 23.7611 29.6116C22.0143 28.1096 19.0326 28.4379 17.1412 30.3905L14.2484 33.4946V2.0583C14.2484 1.95502 14.2895 1.85597 14.3625 1.78294C14.4355 1.70991 14.5346 1.66889 14.6378 1.66889H37.001C37.1042 1.66889 37.2033 1.70991 37.2763 1.78294C37.3493 1.85597 37.3904 1.95502 37.3904 2.0583V43.3744Z" fill="#A5C739"/>
<path d="M32.9262 7.62654C32.5664 7.5174 32.239 7.3212 31.9731 7.05532C31.7073 6.78945 31.5111 6.4621 31.4019 6.10229C31.2776 5.67157 31.0179 5.29234 30.6612 5.02081C30.3045 4.74927 29.8698 4.59986 29.4215 4.59473H21.5277V5.42917C21.5262 6.36264 21.1547 7.25746 20.4947 7.91752C19.8346 8.57758 18.9398 8.94905 18.0063 8.95053H17.1719V26.9968C17.1719 27.2181 17.2598 27.4303 17.4163 27.5868C17.5728 27.7433 17.785 27.8312 18.0063 27.8312C18.2276 27.8312 18.4399 27.7433 18.5964 27.5868C18.7528 27.4303 18.8408 27.2181 18.8408 26.9968V10.5527C19.9141 10.3754 20.905 9.86642 21.6743 9.09715C22.4436 8.32789 22.9526 7.33699 23.1298 6.26362H29.4215C29.5123 6.26974 29.5987 6.30498 29.6678 6.36411C29.737 6.42324 29.7852 6.5031 29.8054 6.59183C29.9953 7.21217 30.3345 7.77645 30.7933 8.2352C31.252 8.69394 31.8163 9.03316 32.4366 9.22311C32.5258 9.24435 32.6058 9.29365 32.6649 9.36374C32.724 9.43383 32.759 9.52103 32.7649 9.61252V35.8474C32.759 35.9389 32.724 36.0261 32.6649 36.0962C32.6058 36.1663 32.5258 36.2156 32.4366 36.2369C31.8163 36.4268 31.252 36.766 30.7933 37.2248C30.3345 37.6835 29.9953 38.2478 29.8054 38.8681C29.7852 38.9569 29.737 39.0367 29.6678 39.0959C29.5987 39.155 29.5123 39.1902 29.4215 39.1964H24.9044C24.6831 39.1964 24.4708 39.2843 24.3143 39.4408C24.1579 39.5972 24.0699 39.8095 24.0699 40.0308C24.0699 40.2521 24.1579 40.4643 24.3143 40.6208C24.4708 40.7773 24.6831 40.8652 24.9044 40.8652H29.4215C29.8698 40.8601 30.3045 40.7107 30.6612 40.4392C31.0179 40.1676 31.2776 39.7884 31.4019 39.3577C31.5111 38.9979 31.7073 38.6705 31.9731 38.4046C32.239 38.1388 32.5664 37.9426 32.9262 37.8334C33.3578 37.7089 33.7377 37.4483 34.0093 37.0905C34.2809 36.7326 34.4298 36.2967 34.4337 35.8474V9.61252C34.4298 9.16329 34.2809 8.72734 34.0093 8.36952C33.7377 8.01169 33.3578 7.75111 32.9262 7.62654Z" fill="#A5C739"/>
<path d="M30.777 22.7136C30.6301 21.4986 30.0434 20.3795 29.1276 19.5677C28.2117 18.7559 27.0303 18.3076 25.8064 18.3076C24.5826 18.3076 23.4012 18.7559 22.4853 19.5677C21.5695 20.3795 20.9828 21.4986 20.8359 22.7136C20.9828 23.9286 21.5695 25.0478 22.4853 25.8596C23.4012 26.6714 24.5826 27.1197 25.8064 27.1197C27.0303 27.1197 28.2117 26.6714 29.1276 25.8596C30.0434 25.0478 30.6301 23.9286 30.777 22.7136ZM22.5048 22.7136C22.6223 21.922 23.0203 21.1989 23.6264 20.6762C24.2324 20.1534 25.0061 19.8658 25.8064 19.8658C26.6068 19.8658 27.3805 20.1534 27.9865 20.6762C28.5925 21.1989 28.9906 21.922 29.1081 22.7136C28.9906 23.5053 28.5925 24.2284 27.9865 24.7511C27.3805 25.2739 26.6068 25.5614 25.8064 25.5614C25.0061 25.5614 24.2324 25.2739 23.6264 24.7511C23.0203 24.2284 22.6223 23.5053 22.5048 22.7136Z" fill="#A5C739"/>
</svg>
