<svg width="76" height="78" viewBox="0 0 76 78" fill="none" xmlns="http://www.w3.org/2000/svg">
<path d="M15.2017 20.1505C11.0041 20.1505 7.60156 16.7474 7.60156 12.5503C7.60156 8.35273 11.0041 4.95068 15.2017 4.95068C19.3988 4.95068 22.8014 8.35273 22.8014 12.5503C22.7974 16.7455 19.3968 20.146 15.2017 20.1505ZM15.2017 7.4839C12.4031 7.4839 10.1348 9.75177 10.1348 12.5503C10.1348 15.3484 12.4031 17.6173 15.2017 17.6173C17.9998 17.6173 20.2681 15.3484 20.2681 12.5503C20.2681 9.75177 17.9998 7.4839 15.2017 7.4839Z" fill="#A5C739"/>
<path d="M45.5999 55.6172V63.2173H31.667V45.8373L24.0668 43.3036V30.284H35.4665C38.9626 30.2795 41.7959 27.4463 41.8003 23.9507V21.4175H6.33329C2.83718 21.4209 0.00445556 24.2542 0 27.7508V41.6837C0 43.7823 1.70152 45.4838 3.80007 45.4838H6.33329V68.2837H0V77.1507H2.53371V70.817H20.2667V77.1507H22.8V65.7505H45.5999V77.1507H48.1336V58.1504H73.4668V77.1507H76V55.6172H45.5999ZM6.33329 29.0171V42.9506H3.80007C3.10056 42.9506 2.53371 42.3832 2.53371 41.6837V27.7508C2.53371 25.6512 4.23474 23.9507 6.33329 23.9507H39.2666C39.2666 26.0493 37.5651 27.7508 35.4665 27.7508H21.5336V45.1303L29.1332 47.6635V63.2173H25.3337V49.6725L12.6666 44.9224V68.2837H8.86701V29.0171H6.33329ZM20.2667 63.2173V68.2837H15.2003V48.5784L22.8 51.428V63.2173H20.2667Z" fill="#A5C739"/>
<path d="M55.7322 51.8169H65.8656V20.1504H73.1999L60.7992 0L48.3984 20.1504H55.7322V51.8169ZM52.9332 17.6172L60.7992 4.83326L68.6652 17.6172H63.3324V49.2836H58.266V17.6172H52.9332Z" fill="#A5C739"/>
</svg>
