<svg width="55" height="76" viewBox="0 0 55 76" fill="none" xmlns="http://www.w3.org/2000/svg">
<path d="M46.363 10.7388C45.8563 10.5851 45.3954 10.3088 45.021 9.93443C44.6466 9.56006 44.3704 9.09914 44.2167 8.59249C44.0417 7.986 43.6759 7.45202 43.1737 7.06968C42.6714 6.68733 42.0593 6.47696 41.4281 6.46973H30.313V7.64469C30.3109 8.95908 29.7879 10.2191 28.8584 11.1485C27.929 12.0779 26.669 12.601 25.3546 12.603H24.1797V38.0135C24.1797 38.3251 24.3035 38.624 24.5238 38.8443C24.7442 39.0647 25.043 39.1885 25.3546 39.1885C25.6663 39.1885 25.9651 39.0647 26.1855 38.8443C26.4058 38.624 26.5296 38.3251 26.5296 38.0135V14.8589C28.041 14.6094 29.4363 13.8927 30.5194 12.8095C31.6026 11.7263 32.3193 10.331 32.5689 8.81965H41.4281C41.5559 8.82827 41.6776 8.8779 41.7749 8.96116C41.8723 9.04442 41.9402 9.15687 41.9686 9.2818C42.2361 10.1553 42.7137 10.9498 43.3597 11.5958C44.0056 12.2417 44.8002 12.7194 45.6736 12.9868C45.7992 13.0168 45.9119 13.0862 45.9951 13.1849C46.0782 13.2836 46.1276 13.4063 46.1358 13.5352V50.4759C46.1276 50.6048 46.0782 50.7275 45.9951 50.8262C45.9119 50.9249 45.7992 50.9943 45.6736 51.0243C44.8002 51.2917 44.0056 51.7694 43.3597 52.4153C42.7137 53.0613 42.2361 53.8558 41.9686 54.7293C41.9402 54.8542 41.8723 54.9667 41.7749 55.0499C41.6776 55.1332 41.5559 55.1828 41.4281 55.1914H35.0677C34.756 55.1914 34.4572 55.3152 34.2368 55.5356C34.0165 55.7559 33.8927 56.0548 33.8927 56.3664C33.8927 56.678 34.0165 56.9769 34.2368 57.1972C34.4572 57.4176 34.756 57.5414 35.0677 57.5414H41.4281C42.0593 57.5341 42.6714 57.3238 43.1737 56.9414C43.6759 56.5591 44.0417 56.0251 44.2167 55.4186C44.3704 54.912 44.6466 54.451 45.021 54.0767C45.3954 53.7023 45.8563 53.426 46.363 53.2723C46.9707 53.0969 47.5056 52.73 47.8881 52.2262C48.2706 51.7223 48.4802 51.1085 48.4857 50.4759V13.5352C48.4802 12.9026 48.2706 12.2888 47.8881 11.7849C47.5056 11.2811 46.9707 10.9142 46.363 10.7388Z" fill="#A5C739"/>
<path d="M52.1002 0H20.5799C19.8112 0 19.074 0.305349 18.5305 0.848874C17.987 1.3924 17.6816 2.12958 17.6816 2.89824V32.2801C11.2742 37.7241 0.495867 47.1629 0.104213 49.5129C-0.193444 51.2126 0.19821 63.2129 0.629029 74.7197L0.668194 75.8477L16.7808 75.9025C16.8666 75.9145 16.9536 75.9145 17.0393 75.9025H17.1098L17.29 75.8398C17.3135 75.8221 17.34 75.8089 17.3683 75.8007L17.5171 75.6988C17.5342 75.6766 17.5555 75.6579 17.5798 75.644C17.6436 75.5818 17.7013 75.5136 17.7521 75.4403L25.4442 64.0432H52.0767C52.8453 64.0432 53.5825 63.7379 54.126 63.1943C54.6695 62.6508 54.9749 61.9136 54.9749 61.145V2.89824C54.9749 2.13363 54.6728 1.39999 54.1343 0.857138C53.5959 0.314283 52.8647 0.00619951 52.1002 0ZM2.43064 49.9593C2.95545 48.5807 10.3577 41.6955 17.713 35.3742V49.693L11.1645 56.7428C11.0218 56.8436 10.9034 56.975 10.818 57.1274C10.7325 57.2798 10.682 57.4493 10.6703 57.6236C10.6586 57.798 10.686 57.9727 10.7503 58.1351C10.8147 58.2976 10.9145 58.4436 11.0424 58.5626C11.1703 58.6816 11.3232 58.7706 11.4898 58.823C11.6565 58.8755 11.8327 58.8901 12.0058 58.8659C12.1788 58.8416 12.3442 58.7791 12.49 58.6828C12.6358 58.5866 12.7583 58.459 12.8486 58.3094L25.8045 44.4135C27.5748 42.5884 30.3634 42.1576 31.8908 43.4814C33.4183 44.8052 33.5514 47.7583 32.1102 49.8889L23.8463 62.1398L16.162 73.5291L2.93979 73.4821C2.43064 58.9282 2.22698 50.9933 2.43064 49.9593ZM52.6485 61.0745C52.6485 61.2199 52.5907 61.3594 52.4879 61.4622C52.3851 61.565 52.2456 61.6228 52.1002 61.6228H27.0343L34.0841 51.2048C36.199 48.0716 35.917 43.8104 33.4574 41.6955C30.9979 39.5805 26.7993 40.0427 24.1361 42.7921L20.0629 47.1629V2.89824C20.0629 2.75282 20.1207 2.61335 20.2235 2.51052C20.3263 2.40769 20.4658 2.34992 20.6112 2.34992H52.1002C52.2456 2.34992 52.3851 2.40769 52.4879 2.51052C52.5907 2.61335 52.6485 2.75282 52.6485 2.89824V61.0745Z" fill="#A5C739"/>
<path d="M46.363 10.7388C45.8563 10.5851 45.3954 10.3088 45.021 9.93443C44.6466 9.56006 44.3704 9.09914 44.2167 8.59249C44.0417 7.986 43.6759 7.45202 43.1737 7.06968C42.6714 6.68733 42.0593 6.47696 41.4281 6.46973H30.313V7.64469C30.3109 8.95908 29.7879 10.2191 28.8584 11.1485C27.929 12.0779 26.669 12.601 25.3546 12.603H24.1797V38.0135C24.1797 38.3251 24.3035 38.624 24.5238 38.8443C24.7442 39.0647 25.043 39.1885 25.3546 39.1885C25.6663 39.1885 25.9651 39.0647 26.1855 38.8443C26.4058 38.624 26.5296 38.3251 26.5296 38.0135V14.8589C28.041 14.6094 29.4363 13.8927 30.5194 12.8095C31.6026 11.7263 32.3193 10.331 32.5689 8.81965H41.4281C41.5559 8.82827 41.6776 8.8779 41.7749 8.96116C41.8723 9.04442 41.9402 9.15687 41.9686 9.2818C42.2361 10.1553 42.7137 10.9498 43.3597 11.5958C44.0056 12.2417 44.8002 12.7194 45.6736 12.9868C45.7992 13.0168 45.9119 13.0862 45.9951 13.1849C46.0782 13.2836 46.1276 13.4063 46.1358 13.5352V50.4759C46.1276 50.6048 46.0782 50.7275 45.9951 50.8262C45.9119 50.9249 45.7992 50.9943 45.6736 51.0243C44.8002 51.2917 44.0056 51.7694 43.3597 52.4153C42.7137 53.0613 42.2361 53.8558 41.9686 54.7293C41.9402 54.8542 41.8723 54.9667 41.7749 55.0499C41.6776 55.1332 41.5559 55.1828 41.4281 55.1914H35.0677C34.756 55.1914 34.4572 55.3152 34.2368 55.5356C34.0165 55.7559 33.8927 56.0548 33.8927 56.3664C33.8927 56.678 34.0165 56.9769 34.2368 57.1972C34.4572 57.4176 34.756 57.5414 35.0677 57.5414H41.4281C42.0593 57.5341 42.6714 57.3238 43.1737 56.9414C43.6759 56.5591 44.0417 56.0251 44.2167 55.4186C44.3704 54.912 44.6466 54.451 45.021 54.0767C45.3954 53.7023 45.8563 53.426 46.363 53.2723C46.9707 53.0969 47.5056 52.73 47.8881 52.2262C48.2706 51.7223 48.4802 51.1085 48.4857 50.4759V13.5352C48.4802 12.9026 48.2706 12.2888 47.8881 11.7849C47.5056 11.2811 46.9707 10.9142 46.363 10.7388Z" fill="#A5C739"/>
<path d="M43.3336 31.9823C43.1269 30.2715 42.3007 28.6957 41.0112 27.5526C39.7216 26.4095 38.058 25.7783 36.3348 25.7783C34.6115 25.7783 32.948 26.4095 31.6584 27.5526C30.3689 28.6957 29.5427 30.2715 29.3359 31.9823C29.5427 33.6931 30.3689 35.269 31.6584 36.4121C32.948 37.5552 34.6115 38.1864 36.3348 38.1864C38.058 38.1864 39.7216 37.5552 41.0112 36.4121C42.3007 35.269 43.1269 33.6931 43.3336 31.9823ZM31.6859 31.9823C31.8513 30.8676 32.4117 29.8494 33.2651 29.1134C34.1184 28.3773 35.2079 27.9724 36.3348 27.9724C37.4617 27.9724 38.5511 28.3773 39.4045 29.1134C40.2578 29.8494 40.8183 30.8676 40.9837 31.9823C40.8183 33.0971 40.2578 34.1152 39.4045 34.8513C38.5511 35.5873 37.4617 35.9923 36.3348 35.9923C35.2079 35.9923 34.1184 35.5873 33.2651 34.8513C32.4117 34.1152 31.8513 33.0971 31.6859 31.9823Z" fill="#A5C739"/>
</svg>
