<svg width="97" height="36" viewBox="0 0 97 36" fill="none" xmlns="http://www.w3.org/2000/svg">
<path d="M96.6239 26.7647C96.5398 24.1629 95.8261 21.6202 94.5439 19.3547C94.0931 18.5496 93.571 17.7865 92.9839 17.0747C87.2239 10.1947 76.5539 8.85469 73.4239 8.61469C73.3406 8.60968 73.2572 8.60968 73.1739 8.61469C44.1739 -9.06531 23.9239 5.44469 20.1739 8.53469C19.9333 8.72912 19.6332 8.83503 19.3239 8.83469H12.4139C12.5915 8.39625 12.6832 7.92775 12.6839 7.4547V6.5447H14.7439C15.0523 6.51692 15.3391 6.37479 15.548 6.14625C15.7568 5.91772 15.8727 5.61931 15.8727 5.30969C15.8727 5.00008 15.7568 4.70167 15.548 4.47314C15.3391 4.2446 15.0523 4.10247 14.7439 4.07469H6.21391C6.0287 4.08022 5.84433 4.04756 5.67229 3.97874C5.50025 3.90992 5.34422 3.80642 5.21391 3.67469L2.10391 0.594694C1.989 0.480444 1.85271 0.389944 1.70283 0.328364C1.55295 0.266783 1.39241 0.235328 1.23037 0.235792C1.06833 0.236257 0.907972 0.268634 0.758446 0.331072C0.60892 0.39351 0.473156 0.484789 0.358906 0.599696C0.244656 0.714602 0.154157 0.850884 0.0925763 1.00077C0.0309959 1.15065 -0.000459227 1.31119 5.06581e-06 1.47323C0.000469359 1.63527 0.0328446 1.79563 0.0952829 1.94515C0.157721 2.09468 0.249 2.23044 0.363906 2.34469L3.46391 5.42469C3.81958 5.78067 4.24209 6.06287 4.70716 6.25508C5.17223 6.44728 5.67069 6.54571 6.17391 6.5447H10.1739V7.4547C10.1739 7.82069 10.0285 8.1717 9.76971 8.4305C9.51091 8.6893 9.1599 8.83469 8.79391 8.83469H8.61391H8.4839C7.81325 8.88789 7.16835 9.11634 6.61376 9.49718C6.05918 9.87802 5.61438 10.3979 5.32391 11.0047L4.22391 13.3047C3.98301 13.8251 3.85682 14.3912 3.85391 14.9647V27.0947C3.85156 27.7636 4.0249 28.4214 4.35658 29.0023C4.68826 29.5831 5.16665 30.0667 5.74391 30.4047C7.84316 31.5039 10.0391 32.4078 12.3039 33.1047C12.6787 33.2252 13.0702 33.286 13.4639 33.2847H17.8239C18.6149 34.089 19.5582 34.7277 20.5986 35.1637C21.639 35.5997 22.7558 35.8243 23.8839 35.8243C25.012 35.8243 26.1288 35.5997 27.1692 35.1637C28.2096 34.7277 29.1529 34.089 29.9439 33.2847H71.3739C72.1641 34.0887 73.1065 34.7272 74.1461 35.1631C75.1856 35.599 76.3016 35.8235 77.4289 35.8235C78.5562 35.8235 79.6722 35.599 80.7118 35.1631C81.7513 34.7272 82.6937 34.0887 83.4839 33.2847H92.7139C93.6746 33.2812 94.5995 32.9195 95.3078 32.2704C96.016 31.6213 96.4568 30.7315 96.5439 29.7747C96.6418 28.7745 96.6686 27.7687 96.6239 26.7647ZM93.1739 22.1547C93.5103 22.9949 93.7648 23.8656 93.9339 24.7547C91.2639 24.8747 89.9339 24.2847 89.3039 23.7547C89.1717 23.6475 89.0511 23.5269 88.9439 23.3947L93.1739 22.1547ZM69.7939 9.52469C63.0869 11.5419 56.1177 12.5529 49.1139 12.5247L42.4539 2.52469C51.3239 1.91469 60.5139 4.29469 69.7939 9.52469ZM39.6839 2.91469L46.1539 12.5947H24.8039C24.6135 12.5913 24.426 12.5477 24.2536 12.4667C24.0813 12.3857 23.928 12.2691 23.8039 12.1247L22.1039 10.1447C27.2434 6.26088 33.299 3.77044 39.6839 2.91469ZM28.7839 30.9147C28.1751 31.7313 27.3703 32.3814 26.4439 32.8047C25.5232 33.2217 24.5129 33.4017 23.5048 33.3285C22.4968 33.2553 21.523 32.9311 20.6723 32.3855C19.8215 31.8398 19.1207 31.0901 18.6337 30.2044C18.1467 29.3188 17.889 28.3254 17.8839 27.3147C17.8839 25.7101 18.5213 24.1713 19.6559 23.0367C20.7905 21.9021 22.3293 21.2647 23.9339 21.2647C25.5385 21.2647 27.0773 21.9021 28.2119 23.0367C29.3465 24.1713 29.9839 25.7101 29.9839 27.3147C29.9839 28.6129 29.5628 29.8761 28.7839 30.9147ZM82.2739 30.9147C81.6667 31.7288 80.8658 32.3785 79.9439 32.8047C79.0226 33.2211 78.0118 33.4008 77.0034 33.3275C75.995 33.2542 75.0209 32.9301 74.1695 32.3847C73.3181 31.8393 72.6165 31.0899 72.1283 30.2045C71.6401 29.3191 71.3808 28.3257 71.3739 27.3147C71.3739 25.7101 72.0113 24.1713 73.1459 23.0367C74.2805 21.9021 75.8193 21.2647 77.4239 21.2647C79.0285 21.2647 80.5673 21.9021 81.7019 23.0367C82.8365 24.1713 83.4739 25.7101 83.4739 27.3147C83.4739 28.6129 83.0528 29.8761 82.2739 30.9147ZM94.1039 29.5347C94.0719 29.8806 93.9134 30.2025 93.6588 30.4387C93.4041 30.6749 93.0712 30.8088 92.7239 30.8147H85.1839C85.7048 29.6576 85.9603 28.3987 85.9317 27.1301C85.9032 25.8615 85.5914 24.6154 85.019 23.4829C84.4466 22.3504 83.6283 21.3603 82.6238 20.5849C81.6193 19.8096 80.4542 19.2687 79.2136 19.0018C77.9731 18.735 76.6886 18.7489 75.4542 19.0426C74.2197 19.3363 73.0666 19.9023 72.0791 20.6993C71.0917 21.4962 70.295 22.5039 69.7473 23.6485C69.1997 24.7932 68.9149 26.0458 68.9139 27.3147C68.9105 28.5227 69.1698 29.7169 69.6739 30.8147H31.6739C32.1812 29.7176 32.4439 28.5234 32.4439 27.3147C32.5239 26.1494 32.3634 24.9802 31.9725 23.8795C31.5815 22.7789 30.9684 21.7704 30.1713 20.9166C29.3742 20.0629 28.41 19.3822 27.3387 18.9168C26.2675 18.4514 25.1119 18.2113 23.9439 18.2113C22.7759 18.2113 21.6204 18.4514 20.5491 18.9168C19.4778 19.3822 18.5136 20.0629 17.7165 20.9166C16.9194 21.7704 16.3063 22.7789 15.9153 23.8795C15.5244 24.9802 15.3639 26.1494 15.4439 27.3147C15.4405 28.5227 15.6998 29.7169 16.2039 30.8147H13.5139C13.375 30.8151 13.2368 30.7949 13.1039 30.7547C11.0121 30.1066 8.98105 29.2768 7.03391 28.2747C6.82938 28.1531 6.66003 27.9804 6.54255 27.7735C6.42507 27.5666 6.3635 27.3326 6.36391 27.0947V14.9847C6.3651 14.7767 6.41294 14.5717 6.50391 14.3847L7.60391 12.0847C7.7146 11.8499 7.89018 11.6517 8.10991 11.5135C8.32964 11.3753 8.58433 11.3028 8.84391 11.3047H19.2639C19.4303 11.3191 19.5976 11.3191 19.7639 11.3047L21.9139 13.7547C22.2749 14.1659 22.7193 14.4954 23.2177 14.7213C23.716 14.9472 24.2568 15.0642 24.8039 15.0647H48.4639C61.4639 15.0647 70.2439 12.0647 72.6339 11.1947C72.8221 11.1241 73.0237 11.0968 73.2239 11.1147C75.2839 11.2747 85.8139 12.3947 91.0839 18.6947C91.4132 19.0919 91.7171 19.5094 91.9939 19.9447L85.9939 21.7047V22.7047C86.0366 23.2855 86.198 23.8514 86.468 24.3674C86.7381 24.8834 87.111 25.3385 87.5639 25.7047C88.9939 26.9247 91.1939 27.4747 94.0939 27.3247C94.1401 28.0605 94.1435 28.7985 94.1039 29.5347Z" fill="#A5C739"/>
</svg>
