<svg width="83" height="44" viewBox="0 0 83 44" fill="none" xmlns="http://www.w3.org/2000/svg">
<path d="M14.4395 4.81315V0H12.0329C5.39795 0 0 5.39795 0 12.0329V14.4395H4.81315V12.0329C4.81315 8.05192 8.05192 4.81315 12.0329 4.81315H14.4395Z" fill="#A5C739"/>
<path d="M70.1117 0H67.7051V4.81315H70.1117C74.0926 4.81315 77.3314 8.05192 77.3314 12.0329V14.4395H82.1445V12.0329C82.1445 5.39795 76.7466 0 70.1117 0Z" fill="#A5C739"/>
<path d="M9.78711 12.033C9.78711 29.2839 23.8218 43.3185 41.0726 43.3185C58.3234 43.3185 72.3581 29.2839 72.3581 12.033V9.62646H9.78711V12.033ZM31.457 36.6969C34.2528 34.7421 37.5701 33.6922 41.0726 33.6922C44.5751 33.6922 47.8923 34.7421 50.6881 36.6969C47.7061 37.8636 44.4631 38.5054 41.0726 38.5054C37.682 38.5054 34.4391 37.8636 31.457 36.6969ZM55.3927 34.2874C51.4395 30.787 46.4247 28.8791 41.0726 28.8791C35.7205 28.8791 30.7057 30.787 26.7525 34.2874C22.8396 31.761 19.6327 28.232 17.4978 24.0659H64.6474C62.5124 28.232 59.3056 31.7609 55.3927 34.2874ZM67.4365 14.4396C67.2869 16.0923 66.984 17.7012 66.5436 19.2528H15.6016C15.1612 17.7012 14.8582 16.0923 14.7087 14.4396H67.4365Z" fill="#A5C739"/>
</svg>
