<svg width="74" height="75" viewBox="0 0 74 75" fill="none" xmlns="http://www.w3.org/2000/svg">
<path d="M0.623954 27.3234L20.323 36.5699C20.5212 36.6628 20.7427 36.6935 20.9587 36.6585L28.1494 35.4841C32.2587 34.8132 36.4585 36.1807 39.3845 39.1427L45.4023 45.2345C45.7711 45.6077 45.9559 46.1017 45.9226 46.6254C45.8894 47.149 45.6438 47.6157 45.2308 47.9395C44.6035 48.4312 43.7112 48.4529 43.061 47.9921L37.1936 43.8352C36.3609 43.2452 35.2517 43.3123 34.4961 43.9979L30.2084 47.8887C29.7648 48.2913 29.7314 48.9772 30.134 49.4208C30.5365 49.8643 31.2222 49.8977 31.6661 49.4951L35.9395 45.6051L41.8069 49.7621C42.4928 50.248 43.3012 50.4895 44.1087 50.4895C44.9819 50.4895 45.8539 50.2072 46.569 49.6465C47.4623 48.9463 48.0156 47.8951 48.0875 46.7625C48.1594 45.6299 47.743 44.5174 46.9455 43.71L42.1744 38.8803C44.6975 38.2543 47.3683 38.357 49.8468 39.1991L52.3894 40.0631C52.6668 40.1573 52.955 40.2038 53.2425 40.2038C53.6937 40.2038 54.1427 40.0892 54.5437 39.8639C54.5488 39.861 54.5539 39.8581 54.5588 39.8552L73.3051 28.9227C73.8226 28.6209 73.9974 27.9568 73.6957 27.4394C73.3939 26.9218 72.7297 26.7473 72.2124 27.0488L53.4758 37.9756C53.3569 38.0406 53.2155 38.0526 53.0873 38.0092L50.5447 37.1453C47.2658 36.0312 43.6959 36.0315 40.4225 37.1327C37.0353 34.0103 32.37 32.5973 27.7997 33.3434L20.9407 34.4637L1.54572 25.3599C1.00342 25.1054 0.357577 25.3386 0.103057 25.8808C-0.151462 26.4231 0.0816546 27.0689 0.623954 27.3234Z" fill="#A5C739"/>
<path d="M73.8896 47.6525C73.6269 47.1142 72.9771 46.8913 72.439 47.154L62.8964 51.8153C62.7333 51.895 62.5927 52.0143 62.4877 52.1624L61.72 53.2448C60.7968 54.5465 59.6016 55.6259 58.2232 56.4122C58.1161 56.2385 57.9942 56.071 57.8561 55.9121L55.9606 53.7309C54.58 52.1422 52.1644 51.9728 50.5755 53.3536L50.4195 53.4892C49.612 54.1909 49.172 55.1601 49.1151 56.1521C49.0984 56.1507 49.0818 56.1485 49.0652 56.1474C48.0484 56.0761 47.0642 56.4051 46.2945 57.0738L46.1382 57.2096C45.3302 57.9117 44.8902 58.8816 44.8336 59.8742C43.8429 59.7918 42.8212 60.092 42.0134 60.7941L41.8569 60.93C41.049 61.6321 40.6091 62.602 40.5524 63.5945C39.5615 63.5121 38.5396 63.8125 37.7317 64.5147L37.5757 64.6503C36.806 65.3192 36.343 66.2474 36.2715 67.2647C36.2002 68.2817 36.5294 69.2657 37.1981 70.0353L38.114 71.0894L37.7485 71.4127C37.7418 71.4188 37.735 71.4247 37.7285 71.4308C37.0222 72.0878 35.8523 72.0712 35.1635 71.3979C34.573 70.7485 34.5545 69.7598 35.1232 69.0898C35.4947 68.6521 35.4607 68.0005 35.0455 67.6038C34.6303 67.2072 33.978 67.2028 33.5574 67.5939L33.441 67.7023C32.7346 68.3594 31.5645 68.3425 30.8759 67.6693C30.2772 67.0112 30.2644 66.0149 30.849 65.3436C31.2279 64.9085 31.1998 64.2529 30.7852 63.8518C30.3707 63.4508 29.7145 63.4444 29.2921 63.8373L29.2597 63.8674C28.5532 64.5244 27.3832 64.5078 26.6945 63.8344C26.1028 63.1838 26.0851 62.1939 26.6563 61.5237C26.9914 61.1305 27.0025 60.5553 26.6831 60.1494C26.3635 59.7435 25.802 59.6194 25.3411 59.8525C24.627 60.214 23.76 60.0453 23.2326 59.4425C22.6189 58.7412 22.6967 57.6328 23.4046 56.9662L24.5709 55.9332L28.2092 52.6317C28.6527 52.2291 28.6861 51.5432 28.2835 51.0996C27.8809 50.656 27.195 50.6227 26.7515 51.0253L23.123 54.318L21.9554 55.3521C21.9489 55.3581 21.9422 55.364 21.9359 55.3699C21.3378 55.9263 20.9469 56.6305 20.7684 57.3763L20.7603 57.3717C18.7717 56.2447 17.0372 54.7699 15.6048 52.9886L14.9865 52.2195C14.8867 52.0954 14.7609 51.9948 14.6179 51.9248L1.56146 45.5377C1.02335 45.2748 0.373749 45.4973 0.110553 46.0353C-0.152644 46.5734 0.0702055 47.223 0.608167 47.4862L13.4475 53.767L13.9145 54.3478C15.5194 56.3436 17.4627 57.996 19.6908 59.2587L21.042 60.0246C21.1871 60.3251 21.3723 60.6104 21.6004 60.8709C22.2598 61.6245 23.1566 62.0748 24.0984 62.1844C23.9641 63.2962 24.3068 64.4522 25.1197 65.3261C25.1286 65.3357 25.1378 65.3451 25.1469 65.3543C25.9853 66.1928 27.1279 66.5814 28.2478 66.5127C28.2533 67.4641 28.6054 68.4132 29.3009 69.1608C29.3098 69.1704 29.319 69.1798 29.3281 69.189C30.1944 70.0554 31.3858 70.4412 32.5409 70.3391C32.5689 71.2593 32.9194 72.1702 33.5882 72.8894C33.5972 72.8989 33.6063 72.9083 33.6154 72.9176C34.3913 73.6934 35.4279 74.0836 36.4652 74.0836C37.448 74.0836 38.4316 73.7332 39.1949 73.0287L39.5819 72.6864C40.1842 73.173 40.9188 73.4648 41.7075 73.5201C41.7988 73.5264 41.8896 73.5296 41.9803 73.5296C42.8993 73.5296 43.7777 73.2023 44.478 72.5937L44.6345 72.4577C45.4426 71.7555 45.8825 70.7854 45.9391 69.7928C46.0452 69.8016 46.1516 69.8072 46.2584 69.8072C47.1464 69.8072 48.0384 69.4999 48.7598 68.873L48.9158 68.7374C49.7239 68.0352 50.1638 67.0652 50.2203 66.0725C50.3265 66.0813 50.4329 66.0869 50.5397 66.0869C51.4277 66.0869 52.3197 65.7796 53.041 65.1527L53.1971 65.0171C53.9667 64.3482 54.4297 63.42 54.5012 62.4028C54.5023 62.3858 54.5025 62.3691 54.5035 62.3521C54.6091 62.3608 54.7151 62.3665 54.8211 62.3665C55.7091 62.3665 56.601 62.0592 57.3222 61.4324L57.4785 61.2966C58.3025 60.5805 58.7436 59.586 58.7858 58.5727C60.6545 57.6142 62.27 56.2187 63.4895 54.4994L64.0971 53.6427L73.3912 49.1027C73.9294 48.8402 74.1527 48.1907 73.8896 47.6525ZM43.2122 70.8207L43.0558 70.9566C42.7236 71.2453 42.2999 71.3874 41.8597 71.3566C41.4206 71.3258 41.0198 71.1258 40.7311 70.7937L38.8357 68.6125C38.5469 68.2803 38.4049 67.8554 38.4357 67.4164C38.4665 66.9773 38.6665 66.5764 38.9988 66.2877L39.1548 66.152C39.4663 65.8813 39.8513 65.7487 40.2347 65.7487C40.6955 65.7487 41.1541 65.9406 41.4795 66.315L43.3749 68.4963C43.9709 69.1819 43.8979 70.2247 43.2122 70.8207ZM47.4931 67.1005L47.337 67.2362C46.6513 67.8321 45.6083 67.7591 45.0122 67.0732L43.1168 64.8918C42.5208 64.2059 42.5939 63.1631 43.2795 62.5673L43.436 62.4314C44.1219 61.8354 45.1647 61.9085 45.7608 62.5944L47.6562 64.7756C48.2522 65.4615 48.1791 66.5044 47.4931 67.1005ZM52.3375 62.2515C52.3067 62.6905 52.1067 63.0914 51.7744 63.3802L51.6183 63.5158C50.9324 64.1118 49.8896 64.0388 49.2935 63.3529L47.3981 61.1715C46.802 60.4856 46.8752 59.4427 47.5609 58.8467L47.7172 58.7109C48.0198 58.4482 48.3988 58.3069 48.7958 58.3069C48.8348 58.3069 48.8741 58.3082 48.9135 58.3109C49.3525 58.3417 49.7534 58.5417 50.042 58.8739L51.9375 61.0551C52.2263 61.3876 52.3683 61.8123 52.3375 62.2515ZM56.0559 59.6596L55.8996 59.7954C55.2138 60.3913 54.1709 60.3183 53.5748 59.6324L51.6794 57.4512C51.3906 57.119 51.2485 56.6942 51.2793 56.2551C51.3102 55.8161 51.51 55.4152 51.8425 55.1264L51.9985 54.9908C52.6844 54.3948 53.7274 54.4678 54.3233 55.1537L56.2188 57.3349C56.8149 58.0207 56.7417 59.0636 56.0559 59.6596Z" fill="#A5C739"/>
<path d="M33.0786 30.3507L36.0806 31.4516C36.3562 31.5527 36.6459 31.6033 36.9357 31.6033C37.2253 31.6033 37.515 31.5527 37.7908 31.4516L40.7927 30.3507C43.5096 29.3543 45.9366 27.6638 47.8109 25.4618C49.6642 23.2843 50.94 20.6541 51.5001 17.8554C51.6177 17.268 51.2369 16.6966 50.6495 16.579C50.0615 16.4612 49.4906 16.8424 49.3731 17.4297C48.3786 22.3983 44.8047 26.5689 40.0459 28.314L37.0438 29.4149C36.974 29.4405 36.8972 29.4405 36.8274 29.4149L33.8253 28.314C28.0754 26.2054 24.2122 20.6738 24.2122 14.5494V5.12264C24.2122 4.86653 24.3947 4.64512 24.646 4.59624L37.0025 2.18973L49.2262 4.59393C49.477 4.64324 49.659 4.86465 49.659 5.12018V13.0197C49.659 13.6187 50.1447 14.1043 50.7436 14.1043C51.3426 14.1043 51.8282 13.6187 51.8282 13.0197V5.12003C51.8282 3.83066 50.9099 2.71425 49.6449 2.46551L37.2128 0.0203911C37.0752 -0.00665163 36.9338 -0.00679624 36.7961 0.0199572L24.2313 2.46696C22.9631 2.71396 22.043 3.83081 22.043 5.12264V14.5497C22.043 21.5801 26.4778 27.9302 33.0786 30.3507Z" fill="#A5C739"/>
<path d="M37.2082 4.44086C37.0707 4.41367 36.9292 4.41367 36.7916 4.44042L27.2581 6.29697C26.7486 6.39617 26.3809 6.84245 26.3809 7.36161V14.5493C26.3809 19.7675 29.6725 24.4806 34.5718 26.2773L36.5616 27.007C36.6821 27.0513 36.8086 27.0733 36.935 27.0733C37.0616 27.0733 37.188 27.0511 37.3084 27.007L39.2984 26.2773C44.1976 24.4808 47.4893 19.7675 47.4893 14.5493V7.35496C47.4893 6.83666 47.1226 6.39082 46.614 6.29075L37.2082 4.44086ZM45.3201 14.5493C45.3201 18.8614 42.6001 22.7561 38.5517 24.2407L36.9352 24.8336L35.3187 24.2409C31.2701 22.7561 28.5501 18.8615 28.5501 14.5495V8.25546L36.9979 6.61034L45.3201 8.24708V14.5493Z" fill="#A5C739"/>
<path d="M34.1518 16.5591C33.7154 16.1487 33.0292 16.17 32.6186 16.6063C32.2084 17.0427 32.2295 17.729 32.6658 18.1394L34.4165 19.7857C34.6182 19.9755 34.8841 20.0802 35.1593 20.0802C35.1823 20.0802 35.2055 20.0794 35.2286 20.078C35.5281 20.0589 35.8062 19.9165 35.9969 19.6848L41.6674 12.7948C42.048 12.3324 41.9816 11.6488 41.5191 11.2682C41.0567 10.8875 40.3731 10.9539 39.9925 11.4164L35.0582 17.4116L34.1518 16.5591Z" fill="#A5C739"/>
</svg>
