<svg width="66" height="66" viewBox="0 0 66 66" fill="none" xmlns="http://www.w3.org/2000/svg">
<path d="M12.375 16.5C16.9313 16.5 20.625 12.8063 20.625 8.25C20.625 3.69368 16.9313 0 12.375 0C7.81868 0 4.125 3.69368 4.125 8.25C4.125 12.8063 7.81868 16.5 12.375 16.5ZM12.375 4.125C14.6532 4.125 16.5 5.97184 16.5 8.25C16.5 10.5282 14.6532 12.375 12.375 12.375C10.0968 12.375 8.25 10.5282 8.25 8.25C8.25 5.97184 10.0968 4.125 12.375 4.125Z" fill="#A5C739"/>
<path d="M12.375 24.7501C14.1957 24.7429 15.9662 25.3465 17.4034 26.4641L19.9279 23.2012C14.5139 19.0299 6.7436 20.0372 2.5722 25.4511C0.90518 27.6147 0.000902344 30.2689 0 33.0001V49.5001H4.125V57.7501H8.25V45.3751H4.125V33.0001C4.125 28.4438 7.81868 24.7501 12.375 24.7501Z" fill="#A5C739"/>
<path d="M8.25 61.875H4.125V66H8.25V61.875Z" fill="#A5C739"/>
<path d="M20.625 53.625H16.5V66H20.625V53.625Z" fill="#A5C739"/>
<path d="M33 16.5C37.5563 16.5 41.25 12.8063 41.25 8.25C41.25 3.69368 37.5563 0 33 0C28.4437 0 24.75 3.69368 24.75 8.25C24.75 12.8063 28.4437 16.5 33 16.5ZM33 4.125C35.2782 4.125 37.125 5.97184 37.125 8.25C37.125 10.5282 35.2782 12.375 33 12.375C30.7218 12.375 28.875 10.5282 28.875 8.25C28.875 5.97184 30.7218 4.125 33 4.125Z" fill="#A5C739"/>
<path d="M33 20.625C26.1684 20.6318 20.6318 26.1684 20.625 33V49.5H24.75V57.75H28.875V45.375H24.75V33C24.75 28.4437 28.4437 24.75 33 24.75C37.5563 24.75 41.25 28.4437 41.25 33V45.375H37.125V66H41.25V49.5H45.375V33C45.3682 26.1684 39.8316 20.6318 33 20.625Z" fill="#A5C739"/>
<path d="M28.875 61.875H24.75V66H28.875V61.875Z" fill="#A5C739"/>
<path d="M53.625 16.5C58.1813 16.5 61.875 12.8063 61.875 8.25C61.875 3.69368 58.1813 0 53.625 0C49.0687 0 45.375 3.69368 45.375 8.25C45.375 12.8063 49.0687 16.5 53.625 16.5ZM53.625 4.125C55.9032 4.125 57.75 5.97184 57.75 8.25C57.75 10.5282 55.9032 12.375 53.625 12.375C51.3468 12.375 49.5 10.5282 49.5 8.25C49.5 5.97184 51.3468 4.125 53.625 4.125Z" fill="#A5C739"/>
<path d="M66 37.125H61.875V41.25H66V37.125Z" fill="#A5C739"/>
<path d="M61.875 49.5H49.5V53.625H66V45.375H61.875V49.5Z" fill="#A5C739"/>
<path d="M53.6251 24.75C58.1815 24.75 61.8751 28.4437 61.8751 33H66.0001C65.9981 26.1656 60.4558 20.6267 53.6213 20.6289C50.89 20.6298 48.2358 21.5341 46.0723 23.2011L48.5968 26.464C50.0339 25.3464 51.8045 24.7428 53.6251 24.75Z" fill="#A5C739"/>
<path d="M59.8125 57.75H55.6875V66H59.8125V57.75Z" fill="#A5C739"/>
<path d="M51.5625 57.75H47.4375V66H51.5625V57.75Z" fill="#A5C739"/>
</svg>
