<svg width="72" height="97" viewBox="0 0 72 97" fill="none" xmlns="http://www.w3.org/2000/svg">
<path d="M61.4487 6.82923H46.009C44.2595 2.86479 40.3341 0.306152 36.0004 0.306152C31.6659 0.306152 27.7405 2.86479 25.991 6.82923H10.5506C4.72625 6.83598 0.00675495 11.5562 0 17.3805V85.8259C0.00675495 91.6502 4.72625 96.3705 10.5506 96.3772H61.4487C67.273 96.3705 71.9932 91.6502 72 85.8259V17.3805C71.9932 11.5562 67.273 6.83598 61.4487 6.82923ZM27.7285 11.6328C28.8558 11.6328 29.8316 10.8484 30.074 9.74588C30.6639 7.0604 33.1565 5.1097 36.0004 5.1097C38.8442 5.1097 41.3361 7.0604 41.926 9.74588C42.1677 10.8484 43.1434 11.6328 44.2722 11.6328H49.0345V13.7403C49.0308 16.9129 46.4601 19.4836 43.2875 19.4873H28.7125C25.5391 19.4836 22.9685 16.9129 22.9647 13.7403V11.6328H27.7285ZM67.1964 85.8259C67.1934 88.9993 64.622 91.5707 61.4487 91.5737H10.5506C7.37796 91.5707 4.80731 88.9993 4.80355 85.8259V17.3805C4.80731 14.2072 7.37796 11.6365 10.5506 11.6328H18.1612V13.7403C18.1679 19.5646 22.8882 24.2841 28.7125 24.2909H43.2875C49.1118 24.2841 53.8313 19.5646 53.8381 13.7403V11.6328H61.4487C64.622 11.6365 67.1927 14.2072 67.1964 17.3805V85.8259Z" fill="#A5C739"/>
<path d="M47.8875 44.6829L32.1199 60.0783L24.1129 52.2627C23.171 51.3411 21.6624 51.3523 20.7324 52.286C19.8033 53.2205 19.7995 54.7291 20.7249 55.6673L20.7572 55.6988L30.4409 65.1543C31.3746 66.0655 32.8644 66.0655 33.7974 65.1543L51.2425 48.1212C52.186 47.1935 52.201 45.6781 51.2778 44.7317C50.3531 43.7852 48.8385 43.7642 47.8875 44.6844V44.6829Z" fill="#A5C739"/>
</svg>
