<svg width="29" height="28" viewBox="0 0 29 28" fill="none" xmlns="http://www.w3.org/2000/svg">
<path d="M25.3229 0H4.33742C2.40851 0 0.839844 1.53349 0.839844 3.41916V23.9341C0.839844 25.8198 2.40851 27.3533 4.33742 27.3533H25.3229C27.2518 27.3533 28.8204 25.8198 28.8204 23.9341V3.41916C28.8204 1.53349 27.2518 0 25.3229 0Z" fill="#A5C739"/>
<path d="M23.448 13.6767H19.076V10.2576C19.076 9.31393 19.8595 9.40282 20.8248 9.40282H22.5736V5.12891H19.076C16.1783 5.12891 13.8296 7.42485 13.8296 10.2576V13.6767H10.332V17.9507H13.8296V27.3533H19.076V17.9507H21.6992L23.448 13.6767Z" fill="#606060"/>
</svg>
