<svg width="27" height="28" viewBox="0 0 27 28" fill="none" xmlns="http://www.w3.org/2000/svg">
<path d="M26.6776 8.04189C26.6155 6.58851 26.3878 5.58933 26.0615 4.72352C25.7249 3.80449 25.2071 2.98169 24.5286 2.29768C23.8658 1.60303 23.0631 1.06326 22.1828 0.721365C21.3389 0.384687 20.3756 0.149658 18.9672 0.0855786C17.5482 0.0160721 17.0977 0 13.4987 0C9.8998 0 9.44932 0.0160721 8.0356 0.0801517C6.62713 0.144231 5.65882 0.379468 4.81997 0.715939C3.92913 1.06326 3.13174 1.59761 2.46888 2.29768C1.79569 2.98169 1.2728 3.80992 0.941264 4.71831C0.614988 5.58933 0.387222 6.58309 0.325122 8.03646C0.257763 9.50069 0.242188 9.96553 0.242188 13.6792C0.242188 17.3929 0.257763 17.8578 0.319863 19.3166C0.381962 20.7699 0.609931 21.7691 0.936207 22.6349C1.2728 23.554 1.79569 24.3768 2.46888 25.0608C3.13174 25.7554 3.93439 26.2952 4.81471 26.6371C5.65882 26.9738 6.62187 27.2088 8.03054 27.2729C9.44407 27.3372 9.89474 27.353 13.4937 27.353C17.0926 27.353 17.5431 27.3372 18.9568 27.2729C20.3653 27.2088 21.3336 26.9738 22.1725 26.6371C23.9539 25.9264 25.3624 24.473 26.0512 22.6349C26.3773 21.7639 26.6052 20.7699 26.6673 19.3166C26.7294 17.8578 26.745 17.3929 26.745 13.6792C26.745 9.96553 26.7397 9.50069 26.6776 8.04189ZM24.2905 19.2097C24.2335 20.5456 24.016 21.2669 23.8348 21.7478C23.3894 22.9395 22.4729 23.8852 21.3181 24.3448C20.852 24.5319 20.1479 24.7562 18.8583 24.8149C17.4602 24.8792 17.0409 24.895 13.504 24.895C9.96716 24.895 9.54257 24.8792 8.14948 24.8149C6.85489 24.7562 6.15582 24.5319 5.68977 24.3448C5.11509 24.1257 4.592 23.7783 4.16741 23.3242C3.72725 22.8806 3.39066 22.3463 3.17827 21.7533C2.99703 21.2724 2.77958 20.5456 2.72274 19.2151C2.66043 17.7724 2.64506 17.3395 2.64506 13.6899C2.64506 10.0403 2.66043 9.60213 2.72274 8.16483C2.77958 6.82897 2.99703 6.1076 3.17827 5.62669C3.39066 5.03349 3.72725 4.49392 4.17267 4.05559C4.60231 3.6014 5.12015 3.25408 5.69502 3.03512C6.16108 2.8481 6.86541 2.62372 8.15474 2.56486C9.55289 2.50078 9.97242 2.4847 13.5091 2.4847C17.0512 2.4847 17.4705 2.50078 18.8636 2.56486C20.1582 2.62372 20.8573 2.8481 21.3233 3.03512C21.898 3.25408 22.4211 3.6014 22.8457 4.05559C23.2858 4.49914 23.6224 5.03349 23.8348 5.62669C24.016 6.1076 24.2335 6.83419 24.2905 8.16483C24.3526 9.60756 24.3682 10.0403 24.3682 13.6899C24.3682 17.3395 24.3526 17.767 24.2905 19.2097Z" fill="#A5C739"/>
<path d="M13.497 6.65234C9.73766 6.65234 6.6875 9.79954 6.6875 13.679C6.6875 17.5584 9.73766 20.7056 13.497 20.7056C17.2566 20.7056 20.3065 17.5584 20.3065 13.679C20.3065 9.79954 17.2566 6.65234 13.497 6.65234ZM13.497 18.2369C11.0581 18.2369 9.07985 16.1958 9.07985 13.679C9.07985 11.1621 11.0581 9.12097 13.497 9.12097C15.9361 9.12097 17.9142 11.1621 17.9142 13.679C17.9142 16.1958 15.9361 18.2369 13.497 18.2369Z" fill="#A5C739"/>
<path d="M22.168 6.37573C22.168 7.28161 21.4561 8.01611 20.578 8.01611C19.7001 8.01611 18.9883 7.28161 18.9883 6.37573C18.9883 5.46965 19.7001 4.73535 20.578 4.73535C21.4561 4.73535 22.168 5.46965 22.168 6.37573Z" fill="#A5C739"/>
</svg>
