<svg width="175" height="138" viewBox="0 0 175 138" fill="none" xmlns="http://www.w3.org/2000/svg">
<path d="M15.7106 137.996H11.4594L8.11436 131.259H4.58808V137.996H0.916016V120.216H9.01662C10.9117 120.216 12.3814 120.726 13.4215 121.745C14.4617 122.765 14.9817 124.11 14.9817 125.777C14.9817 126.98 14.7099 128.024 14.1622 128.906C13.6146 129.792 12.8305 130.443 11.8101 130.859L15.7106 137.996ZM10.7305 127.341C11.1166 126.965 11.3097 126.443 11.3097 125.777C11.3097 125.11 11.1127 124.573 10.7187 124.173C10.3247 123.773 9.75733 123.573 9.02056 123.573H4.58808V127.906H9.01662C9.77309 127.906 10.3444 127.718 10.7305 127.341Z" fill="white"/>
<path d="M24.8122 137.996H20.9707L27.4086 120.216H31.5614L37.9835 137.996H34.3272L33.2398 134.941H25.9036L24.8122 137.996ZM29.6071 124.722L29.548 124.726L27.0737 131.663H32.0775L29.6071 124.722Z" fill="white"/>
<path d="M56.7458 134.643V137.996H45.1465V120.22H48.8225V134.643H56.7458Z" fill="white"/>
<path d="M75.5388 134.643V137.996H63.9395V120.22H67.6155V134.643H75.5388Z" fill="white"/>
<path d="M86.4064 120.216H82.7344V137.996H86.4064V120.216Z" fill="white"/>
<path d="M106.713 120.216H110.74L103.971 137.996H100.197L93.4277 120.216H97.5568L102.111 133.141H102.159L106.713 120.216Z" fill="white"/>
<path d="M130.616 134.643V137.996H117.756V120.22H130.616V123.573H121.432V127.306H130.238V130.659H121.432V134.643H130.616Z" fill="white"/>
<path d="M153.586 137.996H149.334L146.281 131.851C146.1 131.49 145.733 131.263 145.327 131.263H142.467V138H138.795V120.22H146.896C148.791 120.22 150.26 120.73 151.296 121.749C152.337 122.769 152.857 124.114 152.857 125.78C152.857 126.984 152.585 128.027 152.037 128.91C151.493 129.796 150.709 130.447 149.685 130.863L153.586 137.996ZM148.602 127.341C148.988 126.965 149.181 126.443 149.181 125.777C149.181 125.11 148.984 124.573 148.59 124.173C148.196 123.773 147.628 123.573 146.892 123.573H142.463V127.906H146.892C147.648 127.906 148.215 127.718 148.602 127.341Z" fill="white"/>
<path d="M170.543 120.216H174.795L168.203 131.788V137.996H164.531V131.788L157.939 120.216H162.191L166.359 128.043H166.371L170.543 120.216Z" fill="white"/>
<path d="M90.5781 42.4131V98.7926L127.98 86.2124C131.294 85.0987 133.524 82.0046 133.524 78.5263V73.3381L104.687 82.9889L104.64 53.9737C104.632 46.5856 97.871 41.0288 90.5781 42.4131Z" fill="white"/>
<path d="M48.582 23.2295C56.1468 26.6765 61.0008 34.2019 61.0008 42.4841V74.4052L87.903 86.5736V97.5852L53.6725 82.3815C50.5757 81.005 48.582 77.9502 48.582 74.5738V23.2295Z" fill="white"/>
<path d="M40.2019 54.3541V23.9115C40.2019 21.3978 41.4273 19.1861 43.5667 17.8449C45.1506 16.8528 46.9551 16.5155 48.7123 16.8528L61.6039 12.4254L61.6512 12.3234L54.5908 8.96269C49.3979 6.49214 43.3973 6.84115 38.5314 9.89208C33.6655 12.943 30.7578 18.1861 30.7578 23.9115V54.3541C30.7578 62.2834 35.1942 69.397 42.3414 72.9107L42.3571 72.8832V60.9932C40.9742 59.1031 40.2019 56.8011 40.2019 54.3541Z" fill="white"/>
<path d="M64.731 11.0648C64.9635 10.8687 65.2078 10.6805 65.4757 10.5119C66.8783 9.63346 68.4504 9.2766 70.0106 9.43738L83.4263 4.92765L76.5037 1.63358C71.3108 -0.836965 65.3102 -0.487951 60.4443 2.56298C58.4625 3.8061 56.8077 5.41784 55.5391 7.27271C56.9023 7.53937 58.2458 7.97858 59.5421 8.59426L64.731 11.0648Z" fill="white"/>
<path d="M131.885 25.7431L108.119 33.7195L130.675 24.3824C129.986 23.7549 129.198 23.2255 128.315 22.8373L97.5363 9.22576C93.0644 7.2454 88.0055 7.01403 83.3681 8.57479L48.582 20.2726L90.5822 39.59L90.6137 39.5782L119.458 32.8019C124.407 31.6411 129.265 35.041 129.836 40.0684L132.89 66.8013C132.937 67.2013 133.528 67.1699 133.528 66.766V30.8215C133.528 28.9627 132.929 27.198 131.885 25.7431Z" fill="white"/>
<path d="M132.756 24.2685L135.309 19.9941C135.801 19.1666 136.901 18.9353 137.689 19.4882C138.756 20.2372 138.575 21.8646 137.37 22.3627L132.756 24.2685Z" fill="white"/>
</svg>
