<svg width="206" height="38" viewBox="0 0 206 38" fill="none" xmlns="http://www.w3.org/2000/svg">
<path d="M17.5646 31.794H12.5171L8.54313 23.5229H4.36262V31.794H0V9.96069H9.61951C11.8701 9.96069 13.6125 10.5875 14.8465 11.8354C16.0805 13.0861 16.6976 14.737 16.6976 16.7852C16.6976 18.2598 16.3741 19.5413 15.7272 20.6297C15.0803 21.7154 14.1479 22.5156 12.9356 23.0277L17.5646 31.794ZM11.65 18.7102C12.1066 18.2486 12.3377 17.6078 12.3377 16.788C12.3377 15.9681 12.1039 15.3106 11.6364 14.8209C11.1689 14.3285 10.4975 14.0822 9.61951 14.0822H4.36262V19.4014H9.61951C10.5165 19.4014 11.1933 19.1719 11.65 18.7102Z" fill="white"/>
<path d="M28.3724 31.794H23.8086L31.4547 9.96069H36.3854L44.0126 31.794H39.6717L38.3806 28.0418H29.6662L28.3724 31.794ZM34.0669 15.4925L33.9962 15.4953L31.0579 24.0126H36.997L34.0669 15.4925Z" fill="white"/>
<path d="M101.058 9.96069H96.6953V31.794H101.058V9.96069Z" fill="white"/>
<path d="M125.162 9.96069H129.941L121.906 31.794H117.426L109.389 9.96069H114.289L119.696 25.8285H119.756L125.162 9.96069Z" fill="white"/>
<path d="M153.542 27.6752V31.794H138.277V9.96069H153.542V14.0822H142.637V18.6627H153.094V22.7842H142.637V27.6752H153.542Z" fill="white"/>
<path d="M180.815 31.794H175.768L171.794 23.5229H167.611V31.794H163.248V9.96069H172.868C175.118 9.96069 176.861 10.5875 178.095 11.8354C179.329 13.0861 179.946 14.737 179.946 16.7852C179.946 18.2598 179.622 19.5413 178.975 20.6297C178.328 21.7154 177.396 22.5156 176.181 23.0277L180.815 31.794ZM174.901 18.7102C175.357 18.2486 175.588 17.6078 175.588 16.788C175.588 15.9681 175.355 15.3106 174.887 14.8209C174.42 14.3285 173.746 14.0822 172.87 14.0822H167.613V19.4014H172.87C173.765 19.4014 174.441 19.1719 174.901 18.7102Z" fill="white"/>
<path d="M200.95 9.96069H206.001L198.173 24.1693V31.794H193.813V24.1693L185.984 9.96069H191.032L195.984 19.572H195.998L200.95 9.96069Z" fill="white"/>
<path d="M70.7617 16.3151V38.0001L84.6705 33.1623C85.9018 32.7342 86.7308 31.545 86.7308 30.2047V28.2097L76.0077 31.9199L75.9914 20.7612C75.9887 17.9212 73.4744 15.7835 70.7617 16.3151Z" fill="white"/>
<path d="M55.1465 8.93945C57.9598 10.2657 59.7646 13.1589 59.7646 16.3459V28.6238L69.7674 33.305V37.5385L57.0383 31.6905C55.8885 31.1617 55.1465 29.9865 55.1465 28.6882V8.93945Z" fill="white"/>
<path d="M52.0287 20.9094V9.20232C52.0287 8.23419 52.4853 7.38358 53.279 6.86873C53.8688 6.4854 54.5402 6.35669 55.1926 6.4854L59.9874 4.78418L60.0064 4.745L57.3807 3.4523C55.4508 2.50096 53.2165 2.63526 51.4089 3.81045C49.5986 4.98564 48.5195 7.00024 48.5195 9.20232V20.9094C48.5195 23.9593 50.1694 26.693 52.8278 28.0473L52.8332 28.0361V23.4613C52.3168 22.7366 52.0287 21.8496 52.0287 20.9094Z" fill="white"/>
<path d="M61.1499 4.25814C61.2369 4.1826 61.3266 4.10985 61.4271 4.04549C61.949 3.70693 62.5334 3.56982 63.1124 3.63138L68.1002 1.89658L65.5261 0.629055C63.5962 -0.322287 61.3646 -0.18798 59.5543 0.987207C58.8177 1.46568 58.2007 2.08405 57.7305 2.79755C58.2388 2.90108 58.7362 3.06897 59.2173 3.3068L61.1499 4.25814Z" fill="white"/>
<path d="M86.1213 9.90468L77.2819 12.9742L85.67 9.38423C85.4145 9.1436 85.121 8.93934 84.7921 8.78825L73.346 3.55307C71.6825 2.792 69.8015 2.70246 68.0782 3.30124L55.1426 7.80053L70.761 15.2294L70.7719 15.2266L81.4977 12.6216C83.3379 12.1739 85.1427 13.4834 85.3575 15.4169L86.4936 25.697C86.51 25.8508 86.7328 25.8369 86.7328 25.683V11.8577C86.7328 11.1442 86.51 10.4643 86.1213 9.90468Z" fill="white"/>
<path d="M86.4453 9.33945L87.3939 7.69699C87.5788 7.37801 87.9865 7.28847 88.2801 7.50112C88.6769 7.78932 88.609 8.41329 88.1605 8.60636L86.4453 9.33945Z" fill="white"/>
</svg>
